<svg width="300" height="200" viewBox="0 0 300 200" fill="none" xmlns="http://www.w3.org/2000/svg">
<path d="M30 0C13.5503 0 0 13.5503 0 30V170C0 186.45 13.5503 200 30 200H270C286.45 200 300 186.45 300 170V30C300 13.5503 286.45 0 270 0H30ZM34.1406 20H265.84L176.777 108.926C161.849 123.83 137.968 123.828 123.047 108.906L34.1406 20ZM280 34.1211V165.879L214.023 100L280 34.1211ZM20 34.1406L85.8594 100L20 165.859V34.1406ZM199.883 114.121L265.859 180H34.1406L100 114.141L108.906 123.047C131.465 145.605 168.326 145.622 190.898 123.086L199.883 114.121Z" fill="#C6C6C6"/>
</svg>
