<svg width="461" height="461" viewBox="0 0 461 461" fill="none" xmlns="http://www.w3.org/2000/svg">
<path d="M230.09 0.820007C103.22 0.820007 0 104.04 0 230.91C0 357.78 103.22 461 230.09 461C356.96 461 460.18 357.79 460.18 230.91C460.18 104.03 356.96 0.820007 230.09 0.820007ZM327.48 334.33C324.59 338.67 319.83 341.01 314.98 341.01C312.12 341.01 309.23 340.2 306.67 338.49C281.94 322 240 311 205 311.01C167.86 311.03 140.02 320.15 139.74 320.24C131.9 322.9 123.39 318.62 120.77 310.76C118.15 302.9 122.4 294.4 130.26 291.79C131.58 291.35 163.05 281.04 205 281.02C240 281 288.68 290.44 323.32 313.53C330.22 318.13 332.08 327.44 327.48 334.33ZM357.4 272.93C354.15 278.15 348.54 281.02 342.81 281.02C339.71 281.02 336.57 280.19 333.75 278.42C288.91 250.48 242.83 244.57 203.13 244.92C158.31 245.32 122.47 253.87 121.86 254.05C112.79 256.63 103.25 251.33 100.66 242.22C98.07 233.09 103.38 223.6 112.5 221.02C115.27 220.23 151.04 211.43 200.01 211.02C244.66 210.65 300.3 217.12 351.92 249.28C359.95 254.28 362.42 264.88 357.4 272.93ZM387.25 201.13C383.52 207.47 376.84 211 369.98 211C366.54 211 363.06 210.11 359.87 208.25C307.61 177.57 244.07 171.06 199.97 171C199.76 171 199.55 171 199.34 171C146.01 171 104.94 180.38 104.53 180.48C93.75 182.95 83.02 176.29 80.52 165.53C78.02 154.78 84.69 144.04 95.44 141.53C97.29 141.1 141.17 131 199.34 131C199.57 131 199.8 131 200.03 131C249.08 131.07 320.14 138.53 380.13 173.75C389.65 179.35 392.84 191.61 387.25 201.13Z" fill="#C6C6C6"/>
</svg>
