<svg width="432" height="320" viewBox="0 0 432 320" fill="none" xmlns="http://www.w3.org/2000/svg">
<path d="M418.984 55C415 33.0078 396.016 16.9922 373.984 11.9922C341.016 5 280 0 213.984 0C148.008 0 86.0156 5 53.0078 11.9922C31.0156 16.9922 11.9922 31.9922 8.00781 55C3.98438 80 0 115 0 160C0 205 3.98438 240 8.98438 265C13.0078 286.992 31.9922 303.008 53.9844 308.008C88.9844 315 148.984 320 215 320C281.016 320 341.016 315 376.016 308.008C398.008 303.008 416.992 288.008 421.016 265C425 240 430 203.984 431.016 160C428.984 115 423.984 80 418.984 55ZM160 230V90L281.992 160L160 230Z" fill="#C6C6C6"/>
</svg>
